<svg xmlns="http://www.w3.org/2000/svg" viewBox="-8.0 -84.0 726.8 113.6" fill="#161A17"><path d="M9.2,-72.9L28.0,-72.9L28.0,-14.2L61.0,-14.2L61.0,-0.0L9.2,-0.0L9.2,-72.9ZM98.1,-43.5Q92.3,-43.5 89.3,-39.3Q86.2,-35.2 86.2,-27.3Q86.2,-19.4 89.3,-15.2Q92.3,-11.1 98.1,-11.1Q103.9,-11.1 106.9,-15.2Q109.9,-19.4 109.9,-27.3Q109.9,-35.2 106.9,-39.3Q103.9,-43.5 98.1,-43.5ZM98.1,-56.0Q112.3,-56.0 120.2,-48.4Q128.1,-40.8 128.1,-27.3Q128.1,-13.8 120.2,-6.2Q112.3,1.4 98.1,1.4Q84.0,1.4 76.0,-6.2Q68.0,-13.8 68.0,-27.3Q68.0,-40.8 76.0,-48.4Q84.0,-56.0 98.1,-56.0ZM133.9,-54.7L151.4,-54.7L165.0,-16.9L178.6,-54.7L196.1,-54.7L174.6,-0.0L155.4,-0.0L133.9,-54.7ZM260.6,-27.5L260.6,-22.5L219.7,-22.5Q220.4,-16.4 224.2,-13.3Q228.0,-10.2 234.8,-10.2Q240.3,-10.2 246.1,-11.8Q251.9,-13.5 258.0,-16.8L258.0,-3.3Q251.8,-1.0 245.6,0.2Q239.4,1.4 233.2,1.4Q218.4,1.4 210.1,-6.1Q201.9,-13.7 201.9,-27.3Q201.9,-40.7 210.0,-48.3Q218.1,-56.0 232.2,-56.0Q245.1,-56.0 252.9,-48.2Q260.6,-40.5 260.6,-27.5ZM242.6,-33.3Q242.6,-38.3 239.7,-41.3Q236.8,-44.4 232.1,-44.4Q227.0,-44.4 223.9,-41.5Q220.7,-38.7 219.9,-33.3L242.6,-33.3ZM309.4,-72.9L328.2,-72.9L328.2,-14.2L361.2,-14.2L361.2,-0.0L309.4,-0.0L309.4,-72.9ZM398.4,-43.5Q392.6,-43.5 389.5,-39.3Q386.5,-35.2 386.5,-27.3Q386.5,-19.4 389.5,-15.2Q392.6,-11.1 398.4,-11.1Q404.1,-11.1 407.1,-15.2Q410.2,-19.4 410.2,-27.3Q410.2,-35.2 407.1,-39.3Q404.1,-43.5 398.4,-43.5ZM398.4,-56.0Q412.5,-56.0 420.4,-48.4Q428.4,-40.8 428.4,-27.3Q428.4,-13.8 420.4,-6.2Q412.5,1.4 398.4,1.4Q384.2,1.4 376.2,-6.2Q368.3,-13.8 368.3,-27.3Q368.3,-40.8 376.2,-48.4Q384.2,-56.0 398.4,-56.0ZM433.9,-54.7L451.4,-54.7L466.1,-17.6L478.6,-54.7L496.0,-54.7L473.0,5.2Q469.6,14.3 465.0,17.9Q460.4,21.6 452.8,21.6L442.7,21.6L442.7,10.1L448.2,10.1Q452.6,10.1 454.6,8.7Q456.6,7.3 457.8,3.6L458.3,2.1L433.9,-54.7ZM530.8,-24.6Q525.3,-24.6 522.5,-22.8Q519.8,-20.9 519.8,-17.3Q519.8,-14.0 522.0,-12.1Q524.2,-10.2 528.2,-10.2Q533.1,-10.2 536.5,-13.7Q539.9,-17.3 539.9,-22.6L539.9,-24.6L530.8,-24.6ZM557.5,-31.2L557.5,-0.0L539.9,-0.0L539.9,-8.1Q536.3,-3.1 531.9,-0.8Q527.5,1.4 521.2,1.4Q512.7,1.4 507.4,-3.5Q502.1,-8.5 502.1,-16.4Q502.1,-26.0 508.8,-30.5Q515.4,-35.0 529.5,-35.0L539.9,-35.0L539.9,-36.4Q539.9,-40.5 536.6,-42.5Q533.3,-44.4 526.4,-44.4Q520.8,-44.4 515.9,-43.3Q511.1,-42.1 506.9,-39.9L506.9,-53.2Q512.6,-54.6 518.2,-55.3Q523.9,-56.0 529.5,-56.0Q544.3,-56.0 550.9,-50.2Q557.5,-44.3 557.5,-31.2ZM573.7,-76.0L591.2,-76.0L591.2,-0.0L573.7,-0.0L573.7,-76.0ZM627.1,-70.2L627.1,-54.7L645.1,-54.7L645.1,-42.2L627.1,-42.2L627.1,-19.0Q627.1,-15.2 628.6,-13.8Q630.1,-12.5 634.6,-12.5L643.6,-12.5L643.6,-0.0L628.6,-0.0Q618.3,-0.0 613.9,-4.3Q609.6,-8.6 609.6,-19.0L609.6,-42.2L600.9,-42.2L600.9,-54.7L609.6,-54.7L609.6,-70.2L627.1,-70.2ZM648.6,-54.7L666.1,-54.7L680.8,-17.6L693.3,-54.7L710.8,-54.7L687.8,5.2Q684.3,14.3 679.7,17.9Q675.1,21.6 667.5,21.6L657.4,21.6L657.4,10.1L662.9,10.1Q667.3,10.1 669.3,8.7Q671.4,7.3 672.5,3.6L673.0,2.1L648.6,-54.7Z"/></svg>