<svg xmlns="http://www.w3.org/2000/svg" viewBox="-6.0 -82.0 365.8 108.8" fill="#ffffff"><path d="M8.2,-76.0L16.3,-76.0L16.3,-31.1L40.4,-54.7L50.8,-54.7L24.7,-29.1L51.9,-0.0L41.3,-0.0L16.3,-26.7L16.3,-0.0L8.2,-0.0L8.2,-76.0ZM60.6,-76.0L68.6,-76.0L68.6,-0.0L60.6,-0.0L60.6,-76.0ZM108.0,-27.5Q98.1,-27.5 94.4,-25.0Q90.6,-22.5 90.6,-16.5Q90.6,-11.7 93.4,-8.9Q96.2,-6.1 101.1,-6.1Q107.9,-6.1 111.9,-11.4Q116.0,-16.7 116.0,-25.5L116.0,-27.5L108.0,-27.5ZM124.1,-31.2L124.1,-0.0L116.0,-0.0L116.0,-8.3Q113.2,-3.3 109.1,-1.0Q105.0,1.4 99.0,1.4Q91.4,1.4 87.0,-3.3Q82.5,-8.0 82.5,-15.9Q82.5,-25.1 88.1,-29.8Q93.6,-34.5 104.6,-34.5L116.0,-34.5L116.0,-35.4Q116.0,-41.6 112.3,-45.0Q108.6,-48.4 102.0,-48.4Q97.8,-48.4 93.8,-47.3Q89.8,-46.1 86.1,-43.9L86.1,-52.2Q90.5,-54.1 94.7,-55.0Q98.9,-56.0 102.8,-56.0Q113.5,-56.0 118.8,-49.8Q124.1,-43.7 124.1,-31.2ZM134.9,-54.7L143.5,-54.7L158.8,-8.8L174.2,-54.7L182.8,-54.7L164.4,-0.0L153.4,-0.0L134.9,-54.7ZM193.9,-54.7L202.0,-54.7L202.0,-0.0L193.9,-0.0L193.9,-54.7ZM193.9,-76.0L202.0,-76.0L202.0,-64.6L193.9,-64.6L193.9,-76.0ZM239.4,5.1Q236.0,14.8 232.7,17.8Q229.5,20.8 224.0,20.8L217.6,20.8L217.6,13.3L222.3,13.3Q225.6,13.3 227.5,11.5Q229.3,9.8 231.6,3.2L233.1,-0.9L213.1,-54.7L221.7,-54.7L237.1,-11.9L252.4,-54.7L261.0,-54.7L239.4,5.1ZM291.2,-48.4Q284.7,-48.4 280.9,-42.8Q277.2,-37.1 277.2,-27.3Q277.2,-17.5 280.9,-11.8Q284.7,-6.2 291.2,-6.2Q297.7,-6.2 301.5,-11.9Q305.2,-17.5 305.2,-27.3Q305.2,-37.0 301.5,-42.7Q297.7,-48.4 291.2,-48.4ZM291.2,-56.0Q301.8,-56.0 307.8,-48.4Q313.8,-40.8 313.8,-27.3Q313.8,-13.9 307.8,-6.2Q301.8,1.4 291.2,1.4Q280.6,1.4 274.6,-6.2Q268.7,-13.9 268.7,-27.3Q268.7,-40.8 274.6,-48.4Q280.6,-56.0 291.2,-56.0Z"/><path d="M323.8,-78.0 L349.8,-80.0 L333.8,-66.0 L333.8,20.8 L327.8,20.8 L327.8,-68.0 Z"/></svg>